<?xml version="1.0" encoding="UTF-8" standalone="no"?>
<!-- Svg Vector Icons : http://www.onlinewebfonts.com/icon -->

<svg
   version="1.1"
   x="0px"
   y="0px"
   viewBox="0 0 256 256"
   enable-background="new 0 0 256 256"
   xml:space="preserve"
   id="svg12"
   sodipodi:docname="login.svg"
   inkscape:version="1.2.2 (732a01da63, 2022-12-09)"
   xmlns:inkscape="http://www.inkscape.org/namespaces/inkscape"
   xmlns:sodipodi="http://sodipodi.sourceforge.net/DTD/sodipodi-0.dtd"
   xmlns="http://www.w3.org/2000/svg"
   xmlns:svg="http://www.w3.org/2000/svg"><defs
   id="defs16" /><sodipodi:namedview
   id="namedview14"
   pagecolor="#ffffff"
   bordercolor="#000000"
   borderopacity="0.25"
   inkscape:showpageshadow="2"
   inkscape:pageopacity="0.0"
   inkscape:pagecheckerboard="0"
   inkscape:deskcolor="#d1d1d1"
   showgrid="false"
   inkscape:zoom="2.5351562"
   inkscape:cx="127.80278"
   inkscape:cy="128.59168"
   inkscape:window-width="1600"
   inkscape:window-height="829"
   inkscape:window-x="-8"
   inkscape:window-y="-8"
   inkscape:window-maximized="1"
   inkscape:current-layer="g8" />
<metadata
   id="metadata2"> Svg Vector Icons : http://www.onlinewebfonts.com/icon </metadata>
<g
   id="g10"><g
     id="g8"><path
       fill="#000000"
       d="M33.6,236.2c-0.1,6.5-5.5,11.7-12.1,11.6c-6.5-0.1-11.7-5.5-11.6-12.1c1.3-61.5,62.4-100.8,118-100.8c56.9,0,116.7,39.3,118,100.8c0.1,6.5-5.1,11.9-11.6,12.1c-6.5,0.1-11.9-5.1-12.1-11.6c-1-48-49.8-77.7-94.4-77.7C83.2,158.5,34.6,189.7,33.6,236.2"
       id="path4"
       style="fill:#333333" /><path
       fill="#000000"
       d="M128,126.3c26.1,0,47.2-21.2,47.2-47.2c0-26-21.2-47.2-47.2-47.2c-26,0-47.2,21.2-47.2,47.2C80.8,105.1,101.9,126.3,128,126.3 M128,149.9c-39.1,0-70.8-31.7-70.8-70.8C57.2,40,88.9,8.2,128,8.2c39.1,0,70.9,31.7,70.9,70.8C198.8,118.2,167.1,149.9,128,149.9L128,149.9L128,149.9z"
       id="path6"
       style="fill:#333333" /></g></g>
</svg>
